<svg width="55" height="55" viewBox="0 0 55 55" fill="none" xmlns="http://www.w3.org/2000/svg">
<path d="M52.3966 4.91218H40.9349V0.545798C40.9349 0.245609 40.6892 0 40.3891 0H36.5685C36.2683 0 36.0227 0.245609 36.0227 0.545798V4.91218H18.5571V0.545798C18.5571 0.245609 18.3115 0 18.0113 0H14.1907C13.8906 0 13.645 0.245609 13.645 0.545798V4.91218H2.18319C0.975614 4.91218 0 5.8878 0 7.09537V52.3966C0 53.6042 0.975614 54.5798 2.18319 54.5798H52.3966C53.6042 54.5798 54.5798 53.6042 54.5798 52.3966V7.09537C54.5798 5.8878 53.6042 4.91218 52.3966 4.91218ZM49.6676 49.6676H4.91218V23.7422H49.6676V49.6676ZM4.91218 19.1029V9.82436H13.645V13.0992C13.645 13.3993 13.8906 13.645 14.1907 13.645H18.0113C18.3115 13.645 18.5571 13.3993 18.5571 13.0992V9.82436H36.0227V13.0992C36.0227 13.3993 36.2683 13.645 36.5685 13.645H40.3891C40.6892 13.645 40.9349 13.3993 40.9349 13.0992V9.82436H49.6676V19.1029H4.91218Z" fill="white"/>
</svg>
