<svg width="50" height="50" viewBox="0 0 50 50" fill="none" xmlns="http://www.w3.org/2000/svg">
<g clip-path="url(#clip0_48_208)">
<path d="M46.875 34.375H33.8379L29.4189 38.7939C28.2422 39.9707 26.6699 40.625 25 40.625C23.3301 40.625 21.7617 39.975 20.5811 38.7939L16.1621 34.375H3.125C1.39941 34.375 0 35.7744 0 37.5V46.875C0 48.6006 1.39941 50 3.125 50H46.875C48.6006 50 50 48.6006 50 46.875V37.5C50 35.7715 48.6035 34.375 46.875 34.375ZM42.1875 44.5312C40.8984 44.5312 39.8437 43.4766 39.8437 42.1875C39.8437 40.8984 40.8984 39.8437 42.1875 39.8437C43.4766 39.8437 44.5312 40.8984 44.5312 42.1875C44.5312 43.4766 43.4766 44.5312 42.1875 44.5312ZM22.793 36.582C23.3984 37.1973 24.1992 37.5 25 37.5C25.8008 37.5 26.5996 37.1948 27.209 36.5845L39.709 24.0845C40.9287 22.8638 40.9287 20.8862 39.709 19.6655C38.4883 18.4448 36.5098 18.4448 35.29 19.6655L28.125 26.8359V3.125C28.125 1.39941 26.7256 0 25 0C23.2715 0 21.875 1.39941 21.875 3.125V26.8359L14.707 19.668C13.4873 18.4473 11.5088 18.4473 10.2881 19.668C9.06836 20.8887 9.06836 22.8662 10.2881 24.0869L22.793 36.582Z" fill="white"/>
</g>
<defs>
<clipPath id="clip0_48_208">
<rect width="50" height="50" fill="white"/>
</clipPath>
</defs>
</svg>
