<svg width="102" height="70" viewBox="0 0 102 70" fill="none" xmlns="http://www.w3.org/2000/svg">
<path d="M67.0197 25.0261L51.1982 17.8159C50.9297 17.703 50.6426 17.703 50.3741 17.8159L34.5691 25.0261H34.5362L34.3713 25.1388H34.3549L34.1901 25.274C34.1901 25.2965 34.1736 25.2965 34.1571 25.3191L34.0252 25.4768L33.9099 25.657C33.9099 25.6796 33.8934 25.6796 33.8934 25.7021L33.7945 25.9049C33.7945 25.9274 33.7945 25.9274 33.778 25.95L33.7121 26.1527L33.6627 26.4006V26.4682C33.6464 26.5565 33.6408 26.6478 33.6462 26.7386V44.7641C33.6462 45.2422 33.7851 45.7007 34.0324 46.0387C34.2796 46.3768 34.615 46.5667 34.9647 46.5667C35.3143 46.5667 35.6497 46.3768 35.8969 46.0387C36.1442 45.7007 36.2831 45.2422 36.2831 44.7641V29.2396L41.8206 31.7632C40.7803 34.0398 40.2318 36.6721 40.2385 39.3565C40.2391 41.7978 40.693 44.199 41.5578 46.335C42.4226 48.471 43.6698 50.2718 45.1827 51.5688C42.0388 53.1948 39.3549 56.1461 37.5192 59.9958C37.3321 60.4003 37.2687 60.8891 37.3426 61.3569C37.4166 61.8247 37.6221 62.2341 37.9147 62.4968C38.0583 62.6269 38.2194 62.7167 38.3886 62.7611C38.5577 62.8055 38.7317 62.8035 38.9003 62.7553C39.0689 62.7071 39.2289 62.6136 39.3709 62.4803C39.5129 62.3469 39.6341 62.1764 39.7276 61.9786C40.9243 59.4584 42.5628 57.3871 44.4942 55.9532C46.4255 54.5193 48.5884 53.7682 50.7862 53.7682C52.9839 53.7682 55.1468 54.5193 57.0781 55.9532C59.0095 57.3871 60.648 59.4584 61.8447 61.9786C61.9651 62.2284 62.129 62.4334 62.3218 62.575C62.5146 62.7166 62.7301 62.7904 62.9489 62.7897C63.2015 62.7934 63.4488 62.6911 63.6576 62.4968C63.9502 62.2341 64.1557 61.8247 64.2297 61.3569C64.3037 60.8891 64.2403 60.4003 64.0532 59.9958C62.2174 56.1461 59.5335 53.1948 56.3896 51.5688C57.9025 50.2718 59.1497 48.471 60.0145 46.335C60.8793 44.199 61.3332 41.7978 61.3338 39.3565C61.3405 36.6721 60.792 34.0398 59.7517 31.7632L67.0197 28.451C67.2835 28.3325 67.5131 28.1031 67.676 27.7956C67.8388 27.4881 67.9265 27.1182 67.9265 26.7386C67.9265 26.359 67.8388 25.989 67.676 25.6815C67.5131 25.374 67.2835 25.1447 67.0197 25.0261ZM50.7862 50.1718C48.6881 50.1718 46.676 49.0323 45.1924 47.0041C43.7089 44.9758 42.8754 42.2249 42.8754 39.3565C42.8786 37.0486 43.415 34.8011 44.4081 32.9349L50.3741 35.6612C50.6418 35.7816 50.9306 35.7816 51.1982 35.6612L57.1642 32.9349C58.1573 34.8011 58.6937 37.0486 58.6969 39.3565C58.6969 42.2249 57.8635 44.9758 56.3799 47.0041C54.8964 49.0323 52.8842 50.1718 50.7862 50.1718Z" fill="#18629F"/>
<path d="M98.1307 8.99533L86.9314 3.89157C86.7414 3.81162 86.5382 3.81162 86.3481 3.89157L75.1605 8.99533H75.1372L75.0206 9.07508H75.0089L74.8922 9.17077C74.8922 9.18672 74.8806 9.18672 74.8689 9.20267L74.7756 9.31432L74.6939 9.44191C74.6939 9.45786 74.6822 9.45786 74.6822 9.47381L74.6122 9.61735C74.6122 9.6333 74.6122 9.6333 74.6006 9.64925L74.5539 9.7928L74.5189 9.96824V10.0161C74.5074 10.0786 74.5035 10.1432 74.5073 10.2075V22.9669C74.5073 23.3053 74.6056 23.6298 74.7806 23.8691C74.9556 24.1084 75.193 24.2428 75.4405 24.2428C75.688 24.2428 75.9254 24.1084 76.1004 23.8691C76.2755 23.6298 76.3738 23.3053 76.3738 22.9669V11.9778L80.2935 13.7642C79.5571 15.3757 79.1689 17.2389 79.1736 19.1391C79.174 20.8672 79.4954 22.5669 80.1075 24.0788C80.7196 25.5908 81.6025 26.8655 82.6734 27.7836C80.448 28.9345 78.5482 31.0236 77.2487 33.7486C77.1163 34.0349 77.0714 34.381 77.1238 34.7121C77.1762 35.0432 77.3216 35.333 77.5287 35.519C77.6304 35.611 77.7444 35.6746 77.8641 35.706C77.9839 35.7374 78.107 35.736 78.2264 35.7019C78.3457 35.6678 78.459 35.6016 78.5595 35.5073C78.66 35.4129 78.7458 35.2922 78.812 35.1521C79.6591 33.3682 80.8189 31.9021 82.186 30.8871C83.5531 29.8721 85.0841 29.3404 86.6398 29.3404C88.1955 29.3404 89.7265 29.8721 91.0936 30.8871C92.4607 31.9021 93.6205 33.3682 94.4676 35.1521C94.5528 35.329 94.6689 35.4741 94.8053 35.5743C94.9418 35.6746 95.0943 35.7268 95.2492 35.7263C95.428 35.7289 95.6031 35.6565 95.7509 35.519C95.958 35.333 96.1034 35.0432 96.1558 34.7121C96.2082 34.381 96.1633 34.0349 96.0308 33.7486C94.7314 31.0236 92.8316 28.9345 90.6062 27.7836C91.6771 26.8655 92.56 25.5908 93.1721 24.0788C93.7842 22.5669 94.1055 20.8672 94.106 19.1391C94.1107 17.2389 93.7224 15.3757 92.986 13.7642L98.1307 11.4196C98.3174 11.3357 98.48 11.1734 98.5952 10.9557C98.7105 10.738 98.7726 10.4762 98.7726 10.2075C98.7726 9.93877 98.7105 9.67691 98.5952 9.45925C98.48 9.24159 98.3174 9.07924 98.1307 8.99533ZM86.6398 26.7947C85.1547 26.7947 83.7304 25.9881 82.6802 24.5524C81.6301 23.1167 81.0402 21.1695 81.0402 19.1391C81.0424 17.5054 81.4221 15.9145 82.1251 14.5935L86.3481 16.5234C86.5376 16.6086 86.742 16.6086 86.9314 16.5234L91.1545 14.5935C91.8575 15.9145 92.2372 17.5054 92.2394 19.1391C92.2394 21.1695 91.6495 23.1167 90.5993 24.5524C89.5492 25.9881 88.1249 26.7947 86.6398 26.7947Z" fill="#18629F"/>
<path d="M26.4233 8.99533L15.224 3.89157C15.034 3.81162 14.8308 3.81162 14.6407 3.89157L3.45313 8.99533H3.4298L3.31314 9.07508H3.30147L3.18481 9.17077C3.18481 9.18672 3.17315 9.18672 3.16148 9.20267L3.06815 9.31432L2.98649 9.44191C2.98649 9.45786 2.97483 9.45786 2.97483 9.47381L2.90483 9.61735C2.90483 9.6333 2.90483 9.6333 2.89316 9.64925L2.8465 9.7928L2.8115 9.96824V10.0161C2.8 10.0786 2.79606 10.1432 2.79984 10.2075V22.9669C2.79984 23.3053 2.89816 23.6298 3.07319 23.8691C3.24821 24.1084 3.48559 24.2428 3.73311 24.2428C3.98063 24.2428 4.21801 24.1084 4.39303 23.8691C4.56806 23.6298 4.66638 23.3053 4.66638 22.9669V11.9778L8.58612 13.7642C7.84973 15.3757 7.46149 17.2389 7.4662 19.1391C7.46663 20.8672 7.78796 22.5669 8.40008 24.0788C9.01221 25.5908 9.89508 26.8655 10.966 27.7836C8.74058 28.9345 6.84074 31.0236 5.54132 33.7486C5.40888 34.0349 5.36401 34.381 5.41638 34.7121C5.46874 35.0432 5.61417 35.333 5.82131 35.519C5.92296 35.611 6.03697 35.6746 6.15672 35.706C6.27648 35.7374 6.3996 35.736 6.51896 35.7019C6.63832 35.6678 6.75154 35.6016 6.85206 35.5073C6.95258 35.4129 7.0384 35.2922 7.10455 35.1521C7.95165 33.3682 9.11148 31.9021 10.4786 30.8871C11.8457 29.8721 13.3767 29.3404 14.9324 29.3404C16.4881 29.3404 18.0191 29.8721 19.3862 30.8871C20.7533 31.9021 21.9131 33.3682 22.7602 35.1521C22.8454 35.329 22.9614 35.4741 23.0979 35.5743C23.2344 35.6746 23.3869 35.7268 23.5418 35.7263C23.7206 35.7289 23.8957 35.6565 24.0434 35.519C24.2506 35.333 24.396 35.0432 24.4484 34.7121C24.5007 34.381 24.4559 34.0349 24.3234 33.7486C23.024 31.0236 21.1242 28.9345 18.8988 27.7836C19.9697 26.8655 20.8525 25.5908 21.4647 24.0788C22.0768 22.5669 22.3981 20.8672 22.3986 19.1391C22.4033 17.2389 22.015 15.3757 21.2786 13.7642L26.4233 11.4196C26.61 11.3357 26.7726 11.1734 26.8878 10.9557C27.0031 10.738 27.0651 10.4762 27.0651 10.2075C27.0651 9.93877 27.0031 9.67691 26.8878 9.45925C26.7726 9.24159 26.61 9.07924 26.4233 8.99533ZM14.9324 26.7947C13.4473 26.7947 12.023 25.9881 10.9728 24.5524C9.9227 23.1167 9.33274 21.1695 9.33274 19.1391C9.33499 17.5054 9.71471 15.9145 10.4177 14.5935L14.6407 16.5234C14.8302 16.6086 15.0346 16.6086 15.224 16.5234L19.4471 14.5935C20.15 15.9145 20.5298 17.5054 20.532 19.1391C20.532 21.1695 19.942 23.1167 18.8919 24.5524C17.8418 25.9881 16.4175 26.7947 14.9324 26.7947Z" fill="#18629F"/>
</svg>
