<svg width="87" height="70" viewBox="0 0 87 70" fill="none" xmlns="http://www.w3.org/2000/svg">
<path d="M43.0087 17.5112C37.706 17.5112 33.395 22.593 33.395 28.844C33.395 34.9757 37.4631 39.9382 42.7658 40.153C42.9277 40.1291 43.0896 40.1291 43.2111 40.153C43.2516 40.153 43.2718 40.153 43.3123 40.153C43.3325 40.153 43.3325 40.153 43.3527 40.153C48.534 39.9382 52.6021 34.9757 52.6224 28.844C52.6224 22.593 48.3114 17.5112 43.0087 17.5112Z" fill="#18629F"/>
<path d="M53.2903 46.4994C47.6435 42.0617 38.4346 42.0617 32.7473 46.4994C30.1769 48.5273 28.7602 51.2711 28.7602 54.2057C28.7602 57.1403 30.1769 59.8602 32.7271 61.8643C35.5606 64.107 39.2846 65.2283 43.0087 65.2283C46.7327 65.2283 50.4568 64.107 53.2903 61.8643C55.8405 59.8363 57.2572 57.1164 57.2572 54.158C57.237 51.2234 55.8405 48.5035 53.2903 46.4994Z" fill="#18629F"/>
<path d="M69.3199 3.2959C65.6742 3.2959 62.7104 6.80606 62.7104 11.1237C62.7104 15.359 65.5073 18.7868 69.1529 18.9351C69.2642 18.9186 69.3755 18.9186 69.459 18.9351C69.4868 18.9351 69.5008 18.9351 69.5286 18.9351C69.5425 18.9351 69.5425 18.9351 69.5564 18.9351C73.1185 18.7868 75.9154 15.359 75.9293 11.1237C75.9293 6.80606 72.9655 3.2959 69.3199 3.2959Z" fill="#18629F"/>
<path d="M76.3885 23.3187C72.5063 20.2535 66.1752 20.2535 62.2652 23.3187C60.498 24.7195 59.524 26.6146 59.524 28.6416C59.524 30.6686 60.498 32.5473 62.2513 33.9316C64.1993 35.4807 66.7596 36.2552 69.3199 36.2552C71.8801 36.2552 74.4404 35.4807 76.3885 33.9316C78.1417 32.5308 79.1157 30.6521 79.1157 28.6087C79.1018 26.5817 78.1417 24.703 76.3885 23.3187Z" fill="#18629F"/>
<path d="M16.6975 3.2959C13.0519 3.2959 10.0881 6.80606 10.0881 11.1237C10.0881 15.359 12.8849 18.7868 16.5305 18.9351C16.6418 18.9186 16.7531 18.9186 16.8366 18.9351C16.8645 18.9351 16.8784 18.9351 16.9062 18.9351C16.9201 18.9351 16.9201 18.9351 16.934 18.9351C20.4962 18.7868 23.293 15.359 23.3069 11.1237C23.3069 6.80606 20.3431 3.2959 16.6975 3.2959Z" fill="#18629F"/>
<path d="M23.7661 23.3187C19.8839 20.2535 13.5528 20.2535 9.6428 23.3187C7.87565 24.7195 6.90163 26.6146 6.90163 28.6416C6.90163 30.6686 7.87565 32.5473 9.62888 33.9316C11.5769 35.4807 14.1372 36.2552 16.6975 36.2552C19.2578 36.2552 21.8181 35.4807 23.7661 33.9316C25.5193 32.5308 26.4934 30.6521 26.4934 28.6087C26.4794 26.5817 25.5193 24.703 23.7661 23.3187Z" fill="#18629F"/>
</svg>
