<svg width="70" height="70" viewBox="0 0 70 70" fill="none" xmlns="http://www.w3.org/2000/svg">
<path d="M64.1667 0H5.83333C4.28624 0 2.80251 0.614581 1.70854 1.70854C0.614581 2.80251 0 4.28624 0 5.83333V64.1667C0 65.7138 0.614581 67.1975 1.70854 68.2915C2.80251 69.3854 4.28624 70 5.83333 70H64.1667C65.7138 70 67.1975 69.3854 68.2915 68.2915C69.3854 67.1975 70 65.7138 70 64.1667V5.83333C70 4.28624 69.3854 2.80251 68.2915 1.70854C67.1975 0.614581 65.7138 0 64.1667 0ZM17.5 64.1667H5.83333V5.83333H17.5V64.1667ZM52.5 43.75H29.1667C28.3931 43.75 27.6513 43.4427 27.1043 42.8957C26.5573 42.3488 26.25 41.6069 26.25 40.8333C26.25 40.0598 26.5573 39.3179 27.1043 38.7709C27.6513 38.224 28.3931 37.9167 29.1667 37.9167H52.5C53.2735 37.9167 54.0154 38.224 54.5624 38.7709C55.1094 39.3179 55.4167 40.0598 55.4167 40.8333C55.4167 41.6069 55.1094 42.3488 54.5624 42.8957C54.0154 43.4427 53.2735 43.75 52.5 43.75ZM52.5 32.0833H29.1667C28.3931 32.0833 27.6513 31.776 27.1043 31.2291C26.5573 30.6821 26.25 29.9402 26.25 29.1667C26.25 28.3931 26.5573 27.6513 27.1043 27.1043C27.6513 26.5573 28.3931 26.25 29.1667 26.25H52.5C53.2735 26.25 54.0154 26.5573 54.5624 27.1043C55.1094 27.6513 55.4167 28.3931 55.4167 29.1667C55.4167 29.9402 55.1094 30.6821 54.5624 31.2291C54.0154 31.776 53.2735 32.0833 52.5 32.0833Z" fill="#18629F"/>
</svg>
