<svg width="54" height="54" viewBox="0 0 54 54" fill="none" xmlns="http://www.w3.org/2000/svg">
<path d="M49.0877 0H4.46252C3.27898 0 2.14393 0.470157 1.30704 1.30704C0.470157 2.14393 0 3.27898 0 4.46252V49.0877C0 50.2712 0.470157 51.4063 1.30704 52.2432C2.14393 53.0801 3.27898 53.5502 4.46252 53.5502H49.0877C50.2712 53.5502 51.4063 53.0801 52.2432 52.2432C53.0801 51.4063 53.5502 50.2712 53.5502 49.0877V4.46252C53.5502 3.27898 53.0801 2.14393 52.2432 1.30704C51.4063 0.470157 50.2712 0 49.0877 0ZM13.3876 49.0877H4.46252V4.46252H13.3876V49.0877ZM40.1627 33.4689H22.3126C21.7208 33.4689 21.1533 33.2338 20.7349 32.8154C20.3164 32.3969 20.0813 31.8294 20.0813 31.2376C20.0813 30.6459 20.3164 30.0783 20.7349 29.6599C21.1533 29.2414 21.7208 29.0064 22.3126 29.0064H40.1627C40.7544 29.0064 41.322 29.2414 41.7404 29.6599C42.1588 30.0783 42.3939 30.6459 42.3939 31.2376C42.3939 31.8294 42.1588 32.3969 41.7404 32.8154C41.322 33.2338 40.7544 33.4689 40.1627 33.4689ZM40.1627 24.5438H22.3126C21.7208 24.5438 21.1533 24.3088 20.7349 23.8903C20.3164 23.4719 20.0813 22.9044 20.0813 22.3126C20.0813 21.7208 20.3164 21.1533 20.7349 20.7349C21.1533 20.3164 21.7208 20.0813 22.3126 20.0813H40.1627C40.7544 20.0813 41.322 20.3164 41.7404 20.7349C42.1588 21.1533 42.3939 21.7208 42.3939 22.3126C42.3939 22.9044 42.1588 23.4719 41.7404 23.8903C41.322 24.3088 40.7544 24.5438 40.1627 24.5438Z" fill="white"/>
</svg>
