<svg width="39" height="39" viewBox="0 0 39 39" fill="none" xmlns="http://www.w3.org/2000/svg">
<circle cx="19.2014" cy="19.2014" r="19.2014" fill="#20AE26"/>
<path d="M16.106 19.4943H12.3931C12.4564 23.1914 13.1847 23.801 15.4568 25.1468C15.7181 25.3051 15.8052 25.6376 15.6468 25.9068C15.4885 26.1681 15.156 26.2551 14.8868 26.0968C12.211 24.5135 11.2768 23.5476 11.2768 18.9401V14.6731C11.2768 13.3193 12.3772 12.2268 13.7231 12.2268H16.0981C17.4914 12.2268 18.5443 13.2797 18.5443 14.6731V17.0481C18.5522 18.4414 17.4993 19.4943 16.106 19.4943Z" fill="white"/>
<path d="M24.6719 19.4943H20.9589C21.0223 23.1914 21.7506 23.801 24.0227 25.1468C24.2839 25.3051 24.371 25.6376 24.2127 25.9068C24.0544 26.1681 23.7219 26.2551 23.4527 26.0968C20.7769 24.5135 19.8427 23.5476 19.8427 18.9401V14.6731C19.8427 13.3193 20.9431 12.2268 22.2889 12.2268H24.6639C26.0652 12.2268 27.1181 13.2797 27.1181 14.6731V17.0481C27.1181 18.4414 26.0652 19.4943 24.6719 19.4943Z" fill="white"/>
</svg>
