<svg width="85" height="38" viewBox="0 0 85 38" fill="none" xmlns="http://www.w3.org/2000/svg">
<path d="M48.7216 23.8692V21.0841L55.705 10.0823H58.1062V13.9374H56.6851L52.2827 20.9044V21.0351H62.2064V23.8692H48.7216ZM56.7504 26.8096V23.0198L56.8158 21.7865V10.0823H60.1318V26.8096H56.7504ZM66.3147 27.0219C65.7756 27.0219 65.3128 26.8314 64.9262 26.4502C64.545 26.0636 64.3545 25.6008 64.3545 25.0617C64.3545 24.5281 64.545 24.0707 64.9262 23.6895C65.3128 23.3084 65.7756 23.1178 66.3147 23.1178C66.8374 23.1178 67.2948 23.3084 67.6868 23.6895C68.0789 24.0707 68.2749 24.5281 68.2749 25.0617C68.2749 25.4211 68.1823 25.7505 67.9972 26.05C67.8175 26.344 67.5807 26.5809 67.2866 26.7606C66.9926 26.9348 66.6686 27.0219 66.3147 27.0219ZM77.0735 27.0383C75.9191 27.0383 74.89 26.8259 73.9861 26.4012C73.0877 25.9765 72.3744 25.3911 71.8462 24.6452C71.318 23.8992 71.0431 23.0443 71.0213 22.0805H74.4517C74.4898 22.7285 74.762 23.2539 75.2684 23.6569C75.7748 24.0598 76.3765 24.2613 77.0735 24.2613C77.6289 24.2613 78.1189 24.1388 78.5436 23.8937C78.9738 23.6433 79.3087 23.2975 79.5483 22.8564C79.7933 22.4099 79.9158 21.8981 79.9158 21.3209C79.9158 20.7329 79.7906 20.2156 79.5401 19.7691C79.2951 19.3226 78.9547 18.9741 78.5191 18.7236C78.0835 18.4732 77.5853 18.3452 77.0245 18.3398C76.5344 18.3398 76.058 18.4405 75.5951 18.642C75.1378 18.8434 74.7811 19.1184 74.5252 19.4669L71.3806 18.9033L72.1729 10.0823H82.3988V12.9736H75.0887L74.6559 17.1636H74.7539C75.0479 16.7498 75.4917 16.4068 76.0852 16.1345C76.6787 15.8622 77.343 15.7261 78.0781 15.7261C79.0854 15.7261 79.9839 15.963 80.7734 16.4367C81.5629 16.9104 82.1864 17.5611 82.6438 18.3888C83.1012 19.211 83.3271 20.1584 83.3217 21.2311C83.3271 22.3582 83.0658 23.3601 82.5376 24.2368C82.0149 25.108 81.2825 25.7941 80.3405 26.295C79.404 26.7905 78.315 27.0383 77.0735 27.0383Z" fill="#10416A"/>
<circle cx="18.8095" cy="18.8095" r="18.8095" fill="#F6F9FB"/>
<path d="M18.8095 5.67419L21.7586 14.7505H31.3019L23.5812 20.3599L26.5303 29.4362L18.8095 23.8268L11.0887 29.4362L14.0378 20.3599L6.31705 14.7505H15.8604L18.8095 5.67419Z" fill="#DFB419"/>
</svg>
